<?xml version="1.0" standalone="no"?>
<!DOCTYPE svg PUBLIC "-//W3C//DTD SVG 20010904//EN"
 "http://www.w3.org/TR/2001/REC-SVG-20010904/DTD/svg10.dtd">
<svg version="1.0" xmlns="http://www.w3.org/2000/svg"
 width="32.000000pt" height="32.000000pt" viewBox="0 0 32.000000 32.000000"
 preserveAspectRatio="xMidYMid meet">

<g transform="translate(0.000000,32.000000) scale(0.100000,-0.100000)"
fill="#ffffff" stroke="none">
<path d="M101 302 c-51 -26 -73 -73 -69 -152 3 -48 9 -74 26 -97 48 -67 156
-67 204 0 32 44 37 148 10 197 -20 38 -72 70 -112 70 -14 0 -40 -8 -59 -18z
m132 -43 c24 -26 27 -37 27 -99 0 -62 -3 -73 -28 -101 -24 -26 -36 -32 -72
-32 -36 0 -48 6 -72 32 -25 28 -28 39 -28 100 0 60 4 74 25 100 42 49 102 49
148 0z"/>
<path d="M150 215 c0 -19 5 -35 10 -35 6 0 10 16 10 35 0 19 -4 35 -10 35 -5
0 -10 -16 -10 -35z"/>
</g>
</svg>
